<svg xmlns="http://www.w3.org/2000/svg" xmlns:xlink="http://www.w3.org/1999/xlink" width="72" height="69" viewBox="0 0 72 69">
  <defs>
    <filter id="Ellipse_4" x="0" y="0" width="72" height="69" filterUnits="userSpaceOnUse">
      <feOffset dy="3" input="SourceAlpha"/>
      <feGaussianBlur stdDeviation="3" result="blur"/>
      <feFlood flood-color="#d703e6" flood-opacity="0.471"/>
      <feComposite operator="in" in2="blur"/>
      <feComposite in="SourceGraphic"/>
    </filter>
  </defs>
  <g id="Group_33" data-name="Group 33" transform="translate(-1469 -302)">
    <g transform="matrix(1, 0, 0, 1, 1469, 302)" filter="url(#Ellipse_4)">
      <g id="Ellipse_4-2" data-name="Ellipse 4" transform="translate(9 6)" fill="none" stroke="#707070" stroke-width="1">
        <ellipse cx="27" cy="25.5" rx="27" ry="25.5" stroke="none"/>
        <ellipse cx="27" cy="25.5" rx="26.5" ry="25" fill="none"/>
      </g>
    </g>
    <g id="Icons_Navigation_icon_12_states_" data-name="Icons / Navigation icon (12 states)" transform="translate(1492 346) rotate(-90)">
      <g id="ic-file-download">
        <path id="Path_437" data-name="Path 437" d="M0,0H24V24H0Z" fill="none"/>
        <path id="Path_438" data-name="Path 438" d="M14,3V7a1,1,0,0,0,1,1h4" fill="none" stroke="#8f8caa" stroke-linecap="round" stroke-linejoin="round" stroke-width="2"/>
        <path id="Path_439" data-name="Path 439" d="M17,21H7a2,2,0,0,1-2-2V5A2,2,0,0,1,7,3h7l5,5V19A2,2,0,0,1,17,21Z" fill="none" stroke="#8f8caa" stroke-linecap="round" stroke-linejoin="round" stroke-width="2"/>
        <line id="Line_29" data-name="Line 29" y2="6" transform="translate(12 11)" fill="none" stroke="#8f8caa" stroke-linecap="round" stroke-linejoin="round" stroke-width="2"/>
        <path id="Path_440" data-name="Path 440" d="M9,14l3,3,3-3" fill="none" stroke="#8f8caa" stroke-linecap="round" stroke-linejoin="round" stroke-width="2"/>
      </g>
    </g>
  </g>
</svg>
