<svg id="_005-starstruck" data-name="005-starstruck" xmlns="http://www.w3.org/2000/svg" xmlns:xlink="http://www.w3.org/1999/xlink" width="512" height="512" viewBox="0 0 512 512">
  <defs>
    <linearGradient id="linear-gradient" x1="0.5" y1="1" x2="0.5" gradientUnits="objectBoundingBox">
      <stop offset="0" stop-color="#1eac09"/>
      <stop offset="1" stop-color="#0826f6"/>
    </linearGradient>
  </defs>
  <g id="Group_10" data-name="Group 10">
    <g id="Group_9" data-name="Group 9">
      <path id="Path_20" data-name="Path 20" d="M137.713,242.818,166,227.947l28.287,14.872a15,15,0,0,0,21.765-15.813l-5.4-31.5L233.534,173.2a15,15,0,0,0-8.312-25.585l-31.626-4.6-14.144-28.658a15,15,0,0,0-26.9,0l-14.144,28.658-31.626,4.6A15,15,0,0,0,98.467,173.2l22.885,22.307-5.4,31.5a15,15,0,0,0,21.764,15.814Zm12.81-71.244a15,15,0,0,0,11.294-8.206L166,154.893l4.183,8.475a15,15,0,0,0,11.294,8.206l9.353,1.359-6.768,6.6a15,15,0,0,0-4.314,13.277l1.6,9.314-8.364-4.4a15,15,0,0,0-13.961,0l-8.364,4.4,1.6-9.314a15,15,0,0,0-4.314-13.277l-6.768-6.6ZM376,271H136a15,15,0,0,0-15,15c0,74.439,60.561,135,135,135s135-60.561,135-135A15,15,0,0,0,376,271ZM256,391a105.157,105.157,0,0,1-103.924-90H359.924A105.157,105.157,0,0,1,256,391ZM417.329,157.824a15,15,0,0,0-12.108-10.209l-31.626-4.6-14.144-28.658a15,15,0,0,0-26.9,0L318.4,143.019l-31.626,4.6a15,15,0,0,0-8.312,25.585l22.885,22.307-5.4,31.5a15,15,0,0,0,21.765,15.813L346,227.947l28.287,14.872a15,15,0,0,0,21.765-15.813l-5.4-31.5L413.534,173.2a15,15,0,0,0,3.8-15.377Zm-53.267,21.705a15,15,0,0,0-4.314,13.277l1.6,9.314-8.364-4.4a15,15,0,0,0-13.961,0l-8.364,4.4,1.6-9.314a15,15,0,0,0-4.314-13.277l-6.768-6.6,9.353-1.359a15,15,0,0,0,11.294-8.206L346,154.892l4.183,8.475a15,15,0,0,0,11.294,8.206l9.353,1.359ZM256,0C115.041,0,0,115.049,0,256S115.049,512,256,512,512,396.951,512,256,396.951,0,256,0Zm0,482C131.383,482,30,380.617,30,256S131.383,30,256,30,482,131.383,482,256,380.617,482,256,482Z" fill="url(#linear-gradient)"/>
    </g>
  </g>
</svg>
