<svg id="_010-disappointment" data-name="010-disappointment" xmlns="http://www.w3.org/2000/svg" xmlns:xlink="http://www.w3.org/1999/xlink" width="512" height="512" viewBox="0 0 512 512">
  <defs>
    <linearGradient id="linear-gradient" x1="0.5" y1="1" x2="0.5" gradientUnits="objectBoundingBox">
      <stop offset="0" stop-color="#32cd32"/>
      <stop offset="1" stop-color="#c0f"/>
    </linearGradient>
  </defs>
  <g id="Group_8" data-name="Group 8">
    <g id="Group_7" data-name="Group 7">
      <path id="Path_19" data-name="Path 19" d="M346,181a15,15,0,0,0,0-30,45.051,45.051,0,0,1-45-45,15,15,0,0,0-30,0A75.085,75.085,0,0,0,346,181Zm-180,0a75.085,75.085,0,0,0,75-75,15,15,0,0,0-30,0,45.051,45.051,0,0,1-45,45,15,15,0,0,0,0,30Zm90,150c-68.483,0-102.022,65.5-103.416,68.292A15,15,0,0,0,179.4,412.749C179.658,412.232,206.253,361,256,361s76.342,51.232,76.584,51.708a15,15,0,1,0,26.832-13.417C358.022,396.5,324.483,331,256,331ZM391,211H301a15,15,0,0,0-15,15v15a60,60,0,0,0,120,0V226A15,15,0,0,0,391,211Zm-45,60a30.034,30.034,0,0,1-30-30h60A30.034,30.034,0,0,1,346,271ZM256,0C199.04,0,143.862,19.542,98.546,55.382c-7.889-16.6-17.759-35.624-24.428-47.657A15,15,0,0,0,61.07,0H61A15,15,0,0,0,47.951,7.6C35.389,29.759,0,95.326,0,121a58.969,58.969,0,0,0,18.235,42.585l.009.008C6.144,194.182,0,225.213,0,256,0,396.959,115.049,512,256,512S512,396.951,512,256,396.951,0,256,0ZM60.864,46.666C67.249,59.15,91,106.942,91,121a30.034,30.034,0,0,1-30,30c-16.713,0-31-13.681-31-30C30,110.781,44.361,78.307,60.864,46.666ZM256,482C131.383,482,30,380.617,30,256c0-25.616,4.9-51.541,14.557-77.258A61.164,61.164,0,0,0,61,181a60.068,60.068,0,0,0,60-60c0-5.821-1.277-15.668-9.875-37.17C152.245,49.043,203.294,30,256,30c124.617,0,226,101.383,226,226S380.617,482,256,482ZM226,241V226a15,15,0,0,0-15-15H121a15,15,0,0,0-15,15v15a60,60,0,0,0,120,0Zm-90,0h60a30,30,0,0,1-60,0Z" fill="url(#linear-gradient)"/>
    </g>
  </g>
</svg>
