<svg id="_022-disappointed" data-name="022-disappointed" xmlns="http://www.w3.org/2000/svg" xmlns:xlink="http://www.w3.org/1999/xlink" width="512" height="512" viewBox="0 0 512 512">
  <defs>
    <linearGradient id="linear-gradient" x1="0.5" y1="1" x2="0.5" gradientUnits="objectBoundingBox">
      <stop offset="0" stop-color="#f400fd"/>
      <stop offset="1" stop-color="#32cd32"/>
    </linearGradient>
  </defs>
  <g id="Group_6" data-name="Group 6">
    <g id="Group_5" data-name="Group 5">
      <path id="Path_18" data-name="Path 18" d="M181,136a15,15,0,0,0-15-15,104.784,104.784,0,0,0-70.01,26.8,15,15,0,0,0,20.019,22.343A74.824,74.824,0,0,1,166,151,15,15,0,0,0,181,136Zm30,90a45,45,0,1,0-45,45A45.051,45.051,0,0,0,211,226Zm-45,15a15,15,0,1,1,15-15A15.017,15.017,0,0,1,166,241Zm180-60a45,45,0,1,0,45,45A45.051,45.051,0,0,0,346,181Zm0,60a15,15,0,1,1,15-15A15.017,15.017,0,0,1,346,241Zm70.01-93.2A104.784,104.784,0,0,0,346,121a15,15,0,0,0,0,30,74.819,74.819,0,0,1,49.99,19.142A15,15,0,0,0,416.01,147.8ZM256,0C115.05,0,0,115.041,0,256S115.041,512,256,512,512,396.959,512,256,396.959,0,256,0Zm0,482C131.383,482,30,380.617,30,256S131.383,30,256,30,482,131.383,482,256,380.617,482,256,482Zm0-151a90.432,90.432,0,0,0-72,36,15,15,0,0,0,24,18,60,60,0,0,1,96,0,15,15,0,1,0,24-18A90.432,90.432,0,0,0,256,331Z" fill="url(#linear-gradient)"/>
    </g>
  </g>
</svg>
