<svg id="_040-sad" data-name="040-sad" xmlns="http://www.w3.org/2000/svg" xmlns:xlink="http://www.w3.org/1999/xlink" width="512" height="512" viewBox="0 0 512 512">
  <defs>
    <linearGradient id="linear-gradient" x1="0.5" y1="1" x2="0.5" gradientUnits="objectBoundingBox">
      <stop offset="0" stop-color="#7a32cd"/>
      <stop offset="1" stop-color="#32cd32"/>
    </linearGradient>
  </defs>
  <g id="Group_4" data-name="Group 4">
    <g id="Group_3" data-name="Group 3">
      <path id="Path_17" data-name="Path 17" d="M202.708,242.583l-60-30a15,15,0,0,0-13.416,26.833L162.459,256l-33.167,16.583a15,15,0,0,0,13.416,26.833l60-30c11.167-5.583,10.88-21.365,0-26.833ZM256,0C115.041,0,0,115.049,0,256S115.049,512,256,512,512,396.951,512,256,396.951,0,256,0Zm0,482C131.383,482,30,380.617,30,256S131.383,30,256,30,482,131.383,482,256,380.617,482,256,482Zm60-121H196a15,15,0,0,0,0,30H316a15,15,0,0,0,0-30ZM136,181a75.085,75.085,0,0,0,75-75,15,15,0,0,0-30,0,45.051,45.051,0,0,1-45,45,15,15,0,0,0,0,30Zm240-30a45.051,45.051,0,0,1-45-45,15,15,0,0,0-30,0,75.085,75.085,0,0,0,75,75,15,15,0,0,0,0-30Zm13.416,68.292a15,15,0,0,0-20.124-6.708l-60,30a15.019,15.019,0,0,0,0,26.833l60,30a15,15,0,0,0,13.416-26.833L349.541,256l33.167-16.583A15,15,0,0,0,389.416,219.292Z" fill="url(#linear-gradient)"/>
    </g>
  </g>
</svg>
