<svg xmlns="http://www.w3.org/2000/svg" width="819.307" height="816.982" viewBox="0 0 819.307 816.982">
  <g id="Path_6629" data-name="Path 6629" transform="matrix(0.809, 0.588, -0.588, 0.809, 199.539, -118.181)" fill="#019279">
    <path d="M 419.0466003417969 592.322021484375 C 400.0587768554688 592.322021484375 381.7049865722656 591.6455078125 364.4950866699219 590.311279296875 C 343.7462158203125 588.7025756835938 324.5903930664063 586.126220703125 307.5596008300781 582.653564453125 C 265.3734741210938 574.0517578125 235.7595367431641 559.9534301757813 219.5403900146484 540.7503051757813 C 214.4822235107422 534.7616577148438 209.927001953125 527.8582763671875 206.0011596679688 520.2318115234375 C 202.2883148193359 513.0193481445313 199.0260009765625 504.9409790039063 196.3046875 496.2211303710938 C 193.7529296875 488.0442810058594 191.5963897705078 479.0439758300781 189.8950805664063 469.47021484375 C 188.3186187744141 460.5990600585938 187.0796966552734 450.93212890625 186.2127685546875 440.7381286621094 C 182.8699951171875 401.4302673339844 185.3102264404297 358.7991333007813 187.4631500244141 321.1863708496094 C 188.6473083496094 300.4981994628906 189.7658386230469 280.9573669433594 189.7658386230469 264.4226684570313 C 189.7658386230469 255.0004425048828 190.5443115234375 245.5475921630859 192.0795440673828 236.3265075683594 C 193.5758514404297 227.33935546875 195.8289947509766 218.3439788818359 198.7764587402344 209.5902099609375 C 201.6498413085938 201.0562896728516 205.2550048828125 192.5379791259766 209.4918518066406 184.27197265625 C 213.6239929199219 176.210205078125 218.4587707519531 168.1895141601563 223.8619232177734 160.4325866699219 C 234.3056945800781 145.439208984375 247.1733093261719 130.9751281738281 262.1072998046875 117.4422073364258 C 276.397705078125 104.4925155639648 292.7080078125 92.27536010742188 310.5851440429688 81.13020324707031 C 327.8169250488281 70.38743591308594 346.5810852050781 60.58959197998047 366.3563842773438 52.00874328613281 C 385.6217041015625 43.64920425415039 405.8490905761719 36.44151306152344 426.4765319824219 30.58574485778809 C 446.8466186523438 24.80305099487305 467.5459289550781 20.3549747467041 487.9993896484375 17.3651294708252 C 508.505615234375 14.36758995056152 528.6849975585938 12.84774398803711 547.9769287109375 12.84774398803711 C 557.5919799804688 12.84774398803711 567.055908203125 13.23105144500732 576.105712890625 13.98712825775146 C 585.0739135742188 14.73628234863281 593.8811645507813 15.87205219268799 602.2827758789063 17.36274337768555 C 610.6100463867188 18.84028244018555 618.766845703125 20.70697402954102 626.5265502929688 22.91089820861816 C 634.21923828125 25.09589767456055 641.7319946289063 27.67205238342285 648.8561401367188 30.56797409057617 C 655.9207153320313 33.43959045410156 662.7960815429688 36.70405197143555 669.2913208007813 40.27066802978516 C 675.734130859375 43.80843734741211 681.9789428710938 47.74012756347656 687.8521728515625 51.95635986328125 C 693.6799926757813 56.14005279541016 699.3009033203125 60.7181282043457 704.558837890625 65.56336212158203 C 709.778076171875 70.37289428710938 714.7819213867188 75.57682037353516 719.4312133789063 81.03050994873047 C 724.0482177734375 86.44620513916016 728.4412841796875 92.25559234619141 732.4884643554688 98.29736328125 C 736.5091552734375 104.2994384765625 740.2976684570313 110.693977355957 743.7489013671875 117.3033599853516 C 750.592529296875 130.4092864990234 756.3795166015625 144.8717498779297 760.9494018554688 160.2890472412109 C 765.4708251953125 175.5432891845703 768.9093627929688 192.0985870361328 771.16943359375 209.4952087402344 C 773.40966796875 226.7384338378906 774.5455322265625 245.21875 774.5455322265625 264.4226684570313 C 774.5455322265625 276.5329895019531 774.1058959960938 288.2979736328125 773.239013671875 299.3910522460938 C 772.35400390625 310.7149658203125 770.9892578125 321.7815856933594 769.1826171875 332.2835998535156 C 767.3485107421875 342.9451904296875 764.9895629882813 353.4302062988281 762.1710815429688 363.4472961425781 C 759.323486328125 373.5680541992188 755.9007568359375 383.5885009765625 751.9981689453125 393.2301330566406 C 748.0720825195313 402.9296569824219 743.515869140625 412.6028137207031 738.4560546875 421.9810485839844 C 733.3867797851563 431.3768920898438 727.626708984375 440.8199768066406 721.3359375 450.0480651855469 C 715.058837890625 459.2558898925781 708.0244750976563 468.5855102539063 700.4281005859375 477.7776794433594 C 692.8800659179688 486.9113464355469 684.5009155273438 496.2434997558594 675.5233764648438 505.5150451660156 C 665.9005126953125 515.4530029296875 652.904541015625 525.4459228515625 636.8963012695313 535.2161865234375 C 622.1897583007813 544.1920776367188 605.4288330078125 552.7002563476563 587.0791625976563 560.5044555664063 C 570.01318359375 567.7626953125 551.8784790039063 574.2279052734375 534.6354370117188 579.2012939453125 C 517.6270751953125 584.1069946289063 501.5465393066406 587.5477905273438 488.1322937011719 589.1519165039063 C 483.7913208007813 589.6709594726563 474.9383850097656 590.4599609375 463.1103820800781 591.117431640625 C 448.9321594238281 591.905517578125 433.6951599121094 592.322021484375 419.0466003417969 592.322021484375 Z" stroke="none"/>
    <path d="M 547.9769287109375 13.34771728515625 C 528.7091064453125 13.34771728515625 508.5540771484375 14.8658447265625 488.0716857910156 17.85992431640625 C 467.6398315429688 20.84661865234375 446.962158203125 25.28997802734375 426.6130981445313 31.0667724609375 C 406.0067749023438 36.91644287109375 385.8004760742188 44.11663818359375 366.5552978515625 52.4674072265625 C 346.8026123046875 61.0384521484375 328.0604858398438 70.82476806640625 310.849609375 81.55450439453125 C 292.9976806640625 92.6839599609375 276.7113647460938 104.8829956054688 262.4429931640625 117.8126525878906 C 247.5369262695313 131.3203735351563 234.6943969726563 145.7558898925781 224.2721557617188 160.7183532714844 C 218.8817749023438 168.4569091796875 214.0587158203125 176.4581909179688 209.936767578125 184.5000610351563 C 205.7112426757813 192.7440490722656 202.1156616210938 201.2392883300781 199.250244140625 209.749755859375 C 196.3112182617188 218.4783630371094 194.0646362304688 227.4476623535156 192.5726928710938 236.4086608886719 C 191.0419311523438 245.6026000976563 190.2657470703125 255.0278930664063 190.2657470703125 264.4226684570313 C 190.2657470703125 280.9715881347656 189.1468505859375 300.5193481445313 187.9622802734375 321.2148132324219 C 185.810302734375 358.8109741210938 183.3711547851563 401.4232788085938 186.7109985351563 440.6956787109375 C 187.5765991210938 450.8746643066406 188.8135375976563 460.5263671875 190.3873291015625 469.3826599121094 C 192.0850219726563 478.9357299804688 194.2364501953125 487.9153442382813 196.781982421875 496.0720520019531 C 199.4946899414063 504.7645263671875 202.7459716796875 512.8159790039063 206.4456787109375 520.0029907226563 C 210.3543090820313 527.595947265625 214.8885498046875 534.4678344726563 219.92236328125 540.4276733398438 C 236.067138671875 559.5428466796875 265.5862426757813 573.5848388671875 307.6595458984375 582.1636962890625 C 324.6701049804688 585.6322021484375 343.8053588867188 588.2057495117188 364.5337524414063 589.812744140625 C 381.7308349609375 591.1460571289063 400.0715942382813 591.822021484375 419.046630859375 591.822021484375 C 433.6860656738281 591.822021484375 448.9135437011719 591.40576171875 463.0827026367188 590.6182250976563 C 474.8990783691406 589.9613647460938 483.7396850585938 589.1736450195313 488.0729370117188 588.6554565429688 C 501.4608459472656 587.0545043945313 517.5140380859375 583.619140625 534.496826171875 578.7208251953125 C 551.7207641601563 573.7529907226563 569.8357543945313 567.2947387695313 586.8834228515625 560.0443115234375 C 605.2108154296875 552.2495727539063 621.9500122070313 543.752685546875 636.6358642578125 534.7894287109375 C 652.60791015625 525.0411376953125 665.5706787109375 515.0748291015625 675.1641845703125 505.1672973632813 C 684.132568359375 495.9051208496094 692.5029296875 486.582763671875 700.0426025390625 477.4591979980469 C 707.6292114257813 468.27880859375 714.654296875 458.9616088867188 720.9227294921875 449.7664184570313 C 727.203857421875 440.5526123046875 732.954833984375 431.1243591308594 738.0159912109375 421.74365234375 C 743.067138671875 412.3815307617188 747.615478515625 402.7251281738281 751.5346069335938 393.0426025390625 C 755.430419921875 383.4179077148438 758.8470458984375 373.4149780273438 761.6897583007813 363.3118286132813 C 764.5035400390625 353.3113708496094 766.8587036132813 342.8434448242188 768.6898193359375 332.1988220214844 C 770.493896484375 321.7119750976563 771.856689453125 310.6607360839844 772.7405395507813 299.35205078125 C 773.6064453125 288.27197265625 774.0455322265625 276.5199890136719 774.0455322265625 264.4226684570313 C 774.0455322265625 245.2402038574219 772.9110717773438 226.7815856933594 770.673583984375 209.5596008300781 C 768.4169311523438 192.189208984375 764.98388671875 175.6600646972656 760.469970703125 160.4311218261719 C 755.9093017578125 145.044677734375 750.1344604492188 130.6122131347656 743.3056640625 117.5347290039063 C 739.8628540039063 110.9414367675781 736.0836791992188 104.5626831054688 732.0730590820313 98.5755615234375 C 728.03662109375 92.5498046875 723.6552124023438 86.7559814453125 719.05078125 81.35491943359375 C 714.4143676757813 75.9163818359375 709.4246215820313 70.72705078125 704.219970703125 65.9310302734375 C 698.9769897460938 61.0994873046875 693.3719482421875 56.534423828125 687.5606079101563 52.36260986328125 C 681.70361328125 48.157958984375 675.4760131835938 44.23712158203125 669.0506591796875 40.708984375 C 662.572265625 37.15167236328125 655.7145385742188 33.89556884765625 648.6679077148438 31.03118896484375 C 641.560546875 28.14215087890625 634.065185546875 25.5718994140625 626.389892578125 23.39190673828125 C 618.6463623046875 21.1925048828125 610.5061645507813 19.32965087890625 602.1953735351563 17.85504150390625 C 593.808837890625 16.3670654296875 585.0169677734375 15.2332763671875 576.0640869140625 14.4853515625 C 567.028076171875 13.73052978515625 557.578125 13.34771728515625 547.9769287109375 13.34771728515625 M 547.9769287109375 12.34771728515625 C 703.4449462890625 12.34771728515625 775.0455322265625 110.6117553710938 775.0455322265625 264.4226684570313 C 775.0455322265625 360.840576171875 747.8759765625 431.5115966796875 675.882568359375 505.8629150390625 C 635.4801025390625 547.5882568359375 542.5614013671875 583.146728515625 488.1916809082031 589.6483764648438 C 479.68603515625 590.6654663085938 452.9363098144531 592.8220825195313 419.046630859375 592.8220825195313 C 351.52099609375 592.8220825195313 255.6366577148438 584.2623291015625 219.1583862304688 541.0728759765625 C 165.6261596679688 477.6929016113281 189.2657470703125 340.7130432128906 189.2657470703125 264.4226684570313 C 189.2657470703125 110.6112976074219 392.5082397460938 12.34771728515625 547.9769287109375 12.34771728515625 Z" stroke="none" fill="#707070"/>
  </g>
</svg>
