<svg xmlns="http://www.w3.org/2000/svg" xmlns:xlink="http://www.w3.org/1999/xlink" width="96.781" height="93.014" viewBox="0 0 96.781 93.014">
  <defs>
    <linearGradient id="linear-gradient" x1="0.5" x2="0.5" y2="1" gradientUnits="objectBoundingBox">
      <stop offset="0" stop-color="#6bbef8"/>
      <stop offset="1" stop-color="#a1affd"/>
    </linearGradient>
    <filter id="twitter_icon" x="0" y="0" width="96.781" height="93.014" filterUnits="userSpaceOnUse">
      <feOffset dy="3" input="SourceAlpha"/>
      <feGaussianBlur stdDeviation="12.5" result="blur"/>
      <feFlood flood-color="#60b7fa" flood-opacity="0.341"/>
      <feComposite operator="in" in2="blur"/>
      <feComposite in="SourceGraphic"/>
    </filter>
  </defs>
  <g transform="matrix(1, 0, 0, 1, 0, 0)" filter="url(#twitter_icon)">
    <path id="twitter_icon-2" data-name="twitter icon" d="M14.553,0V0h1.021l.373.076a3.937,3.937,0,0,1,.678.194,4.781,4.781,0,0,1,.589.28,5.587,5.587,0,0,1,.516.326,3.192,3.192,0,0,1,.412.348.564.564,0,0,0,.564.1,7.439,7.439,0,0,0,.825-.251q.442-.16.874-.36t.526-.254l.1-.06,0-.006.02-.01.02-.01.02-.01.02-.01,0-.006.006,0,.006,0,0-.006.02-.006.02,0,0,.03-.006.03-.01.03-.01.03-.01.021-.01.021-.01.03a.705.705,0,0,0-.02.08,3.382,3.382,0,0,1-.187.4,5.014,5.014,0,0,1-.442.71,3.469,3.469,0,0,1-.477.543q-.212.185-.281.26a.847.847,0,0,1-.167.14l-.1.066-.02.01-.02.01,0,.006-.006,0-.006,0,0,.006-.02.01-.02.01,0,.006-.006,0-.006,0,0,.006,0,.006-.006,0-.006,0,0,.006h.1l.55-.12A9.7,9.7,0,0,0,21,2.4l.53-.18.059-.021.029-.01.02-.01.02-.01.02-.01.02-.01.039-.006.039,0v.04l-.01,0-.01.006,0,.006-.006,0-.006,0,0,.006,0,.006-.006,0-.006,0,0,.006,0,.006-.006,0-.01.021-.01.021-.006,0-.249.34a2.8,2.8,0,0,1-.265.34q-.02.006-.055.06a5.687,5.687,0,0,1-.416.446,9.948,9.948,0,0,1-.75.694.952.952,0,0,0-.373.752q-.006.444-.045,1t-.147,1.21A14.638,14.638,0,0,1,19.052,8.6a13.521,13.521,0,0,1-.55,1.6,12.554,12.554,0,0,1-.678,1.4q-.354.62-.648,1.05t-.6.81q-.3.38-.77.856t-.511.52q-.045.044-.385.329t-.727.572a8.392,8.392,0,0,1-.711.474q-.323.19-.782.434a9.221,9.221,0,0,1-.986.456q-.53.21-1.119.391a10.075,10.075,0,0,1-1.139.28q-.55.1-1.247.17L7.5,18v.01H6.226V18l-.167-.01q-.167-.01-.275-.021t-.815-.11q-.707-.1-1.11-.2t-1.2-.381A11.541,11.541,0,0,1,1.3,16.717q-.564-.284-.707-.36t-.318-.184L.1,16.063l0-.006-.006,0-.006,0,0-.006-.02-.01-.02-.01,0-.006-.006,0-.006,0L.02,16l0-.006-.006,0H0v-.04l.02,0,.02.006.088.01q.088.01.481.03t.835,0a8.632,8.632,0,0,0,.9-.09,10.023,10.023,0,0,0,1.09-.24,7.957,7.957,0,0,0,1.155-.4q.525-.236.747-.352a7.246,7.246,0,0,0,.672-.424l.449-.31,0-.006.006,0,.006,0,0-.006,0-.006.006,0,.006,0,0-.006.02-.006.02,0,0-.021.006-.021.006,0,0-.006-.157-.01-.3-.021a2.906,2.906,0,0,1-.462-.09,4.377,4.377,0,0,1-.678-.24,5.193,5.193,0,0,1-.707-.38,3.482,3.482,0,0,1-.5-.366q-.151-.144-.393-.408a4.037,4.037,0,0,1-.416-.546,4.934,4.934,0,0,1-.338-.646l-.163-.362-.01-.03-.01-.03-.006-.021,0-.021.029,0,.029.006.216.03a4.716,4.716,0,0,0,.678.021,5.155,5.155,0,0,0,.638-.04q.177-.03.216-.04l.039-.01.049-.01.049-.01,0-.006.006,0,.006,0,0-.006-.038-.01-.039-.01-.039-.01-.039-.01-.039-.01-.137-.04q-.1-.03-.53-.22a4.031,4.031,0,0,1-.686-.37,4.762,4.762,0,0,1-.487-.394,5.62,5.62,0,0,1-.5-.555,4.01,4.01,0,0,1-.492-.79,4.856,4.856,0,0,1-.323-.86,4.717,4.717,0,0,1-.141-.83l-.035-.42.02,0,.02.006.02.01.02.01.02.01.02.01.3.14a3.791,3.791,0,0,0,.756.24q.452.1.54.11l.088.01h.177l0-.006-.006,0-.006,0,0-.006,0-.006-.006,0-.006,0,0-.006-.02-.01-.02-.01,0-.006-.006,0-.006,0,0-.006-.02-.01-.02-.01,0-.006-.169-.128a2.6,2.6,0,0,1-.34-.326q-.177-.2-.354-.42a3.245,3.245,0,0,1-.315-.47,5.743,5.743,0,0,1-.291-.636,4.573,4.573,0,0,1-.23-.774A4.48,4.48,0,0,1,.9,3.238a4.933,4.933,0,0,1,.02-.65,4.314,4.314,0,0,1,.117-.609A4.807,4.807,0,0,1,1.3,1.26L1.463.88,1.474.85l.01-.03.006,0,0-.006L1.5.8,1.5.8l.006,0,0,.006,0,.006.006,0,.006,0,0,.006,0,.006.006,0,.01.021.01.021.006,0,0,.006.265.3q.265.3.629.67a3.72,3.72,0,0,0,.4.384.29.29,0,0,1,.1.092,4.033,4.033,0,0,0,.393.354q.334.28.874.65t1.2.73a11.589,11.589,0,0,0,1.413.65q.756.29,1.061.38t1.041.23q.737.14,1.11.18t.511.046l.137,0,0-.03-.006-.03-.039-.25a4.781,4.781,0,0,1-.039-.7,4.668,4.668,0,0,1,.069-.83,4.984,4.984,0,0,1,.206-.77,4.15,4.15,0,0,1,.27-.627,6.165,6.165,0,0,1,.349-.533,4.283,4.283,0,0,1,.56-.62A4.132,4.132,0,0,1,12.854.6a5.064,5.064,0,0,1,.815-.38A3.744,3.744,0,0,1,14.3.05,2.149,2.149,0,0,0,14.553,0Z" transform="translate(37.5 34.5)" fill="url(#linear-gradient)"/>
  </g>
</svg>
