<svg xmlns="http://www.w3.org/2000/svg" width="27" height="27" viewBox="0 0 27 27">
  <g id="dashboard" transform="translate(0 0)">
    <path id="Path_6647" data-name="Path 6647" d="M10.406,9H1.969A1.971,1.971,0,0,1,0,7.031V1.969A1.971,1.971,0,0,1,1.969,0h8.438a1.971,1.971,0,0,1,1.969,1.969V7.031A1.971,1.971,0,0,1,10.406,9ZM1.969,1.688a.281.281,0,0,0-.281.281V7.031a.281.281,0,0,0,.281.281h8.438a.281.281,0,0,0,.281-.281V1.969a.281.281,0,0,0-.281-.281Zm0,0" fill="#919eaf"/>
    <path id="Path_6648" data-name="Path 6648" d="M10.406,229.082H1.969A1.971,1.971,0,0,1,0,227.113V215.3a1.971,1.971,0,0,1,1.969-1.969h8.438a1.971,1.971,0,0,1,1.969,1.969v11.813A1.971,1.971,0,0,1,10.406,229.082ZM1.969,215.02a.281.281,0,0,0-.281.281v11.813a.281.281,0,0,0,.281.281h8.438a.281.281,0,0,0,.281-.281V215.3a.281.281,0,0,0-.281-.281Zm0,0" transform="translate(0 -202.082)" fill="#919eaf"/>
    <path id="Path_6649" data-name="Path 6649" d="M287.738,350.332H279.3a1.971,1.971,0,0,1-1.969-1.969V343.3a1.971,1.971,0,0,1,1.969-1.969h8.437a1.971,1.971,0,0,1,1.969,1.969v5.063A1.971,1.971,0,0,1,287.738,350.332ZM279.3,343.02a.281.281,0,0,0-.281.281v5.063a.281.281,0,0,0,.281.281h8.437a.281.281,0,0,0,.281-.281V343.3a.281.281,0,0,0-.281-.281Zm0,0" transform="translate(-262.707 -323.332)" fill="#919eaf"/>
    <path id="Path_6650" data-name="Path 6650" d="M287.738,15.75H279.3a1.971,1.971,0,0,1-1.969-1.969V1.969A1.971,1.971,0,0,1,279.3,0h8.437a1.971,1.971,0,0,1,1.969,1.969V13.781A1.971,1.971,0,0,1,287.738,15.75ZM279.3,1.688a.281.281,0,0,0-.281.281V13.781a.282.282,0,0,0,.281.281h8.437a.281.281,0,0,0,.281-.281V1.969a.281.281,0,0,0-.281-.281Zm0,0" transform="translate(-262.707)" fill="#919eaf"/>
  </g>
</svg>
