<svg xmlns="http://www.w3.org/2000/svg" width="31.995" height="26.629" viewBox="0 0 31.995 26.629">
  <g id="My_community" data-name="My community" transform="translate(0.5 -91.75)">
    <g id="Group_9902" data-name="Group 9902" transform="translate(0 92.25)">
      <path id="Path_6638" data-name="Path 6638" d="M26.806,103.527a5.13,5.13,0,0,0,1.509-3.77c0-2.548-1.582-4.608-3.539-4.608s-3.539,2.061-3.539,4.608a5.106,5.106,0,0,0,1.509,3.77,6.032,6.032,0,0,0-2.091,1.6,7.623,7.623,0,0,0-2.87-2.037,6.378,6.378,0,0,0,2.165-5c0-3.227-2.005-5.838-4.483-5.838s-4.483,2.62-4.483,5.838a6.358,6.358,0,0,0,2.165,5,7.683,7.683,0,0,0-2.839,2.013,6.062,6.062,0,0,0-2.067-1.565,5.13,5.13,0,0,0,1.509-3.77c0-2.548-1.582-4.608-3.539-4.608s-3.539,2.06-3.539,4.608a5.106,5.106,0,0,0,1.509,3.77C1.748,104.629,0,107.64,0,111.178v.527c0,.016.012.032.025.032h7.5c-.043.439-.067.894-.067,1.35v.543c0,2.348,1.46,4.249,3.263,4.249h9.506c1.8,0,3.263-1.9,3.263-4.249v-.543c0-.455-.025-.91-.067-1.35H30.97c.012,0,.025-.016.025-.032v-.527C30.983,107.632,29.241,104.621,26.806,103.527Zm-4.587-3.778c0-1.837,1.147-3.33,2.557-3.33s2.557,1.493,2.557,3.33c0,1.813-1.122,3.29-2.508,3.33h-.1C23.335,103.048,22.219,101.57,22.219,99.749ZM11.953,98.088c0-2.516,1.57-4.56,3.5-4.56s3.5,2.045,3.5,4.56c0,2.428-1.466,4.417-3.3,4.552h-.4C13.418,102.5,11.953,100.516,11.953,98.088ZM3.637,99.749c0-1.837,1.147-3.33,2.557-3.33s2.557,1.493,2.557,3.33c0,1.813-1.122,3.29-2.508,3.33h-.1C4.759,103.048,3.637,101.57,3.637,99.749Zm4.06,10.7H.994c.276-3.4,2.484-6.07,5.164-6.094h.074a4.559,4.559,0,0,1,3.342,1.621A11.71,11.71,0,0,0,7.7,110.451Zm14.8,3.179c0,1.637-1.024,2.971-2.281,2.971H10.708c-1.257,0-2.281-1.334-2.281-2.971v-.543c0-4.96,3.042-9.017,6.826-9.161a2.736,2.736,0,0,0,.417,0c3.784.144,6.826,4.2,6.826,9.161Zm.73-3.179a11.687,11.687,0,0,0-1.858-4.441,4.591,4.591,0,0,1,3.373-1.653h.074c2.68.024,4.888,2.691,5.164,6.094Z" transform="translate(0 -92.25)" fill="#919eaf" stroke="#919eaf" stroke-width="1"/>
    </g>
  </g>
</svg>
