<svg id="user" xmlns="http://www.w3.org/2000/svg" width="26" height="28.444" viewBox="0 0 26 28.444">
  <path id="Path_6555" data-name="Path 6555" d="M94.538,13.7a7.627,7.627,0,0,0,5.307-2.007,6.352,6.352,0,0,0,2.2-4.844,6.353,6.353,0,0,0-2.2-4.844,8.021,8.021,0,0,0-10.614,0,6.352,6.352,0,0,0-2.2,4.844,6.352,6.352,0,0,0,2.2,4.844A7.63,7.63,0,0,0,94.538,13.7ZM90.522,3.186a6.069,6.069,0,0,1,8.031,0,4.747,4.747,0,0,1,1.664,3.665,4.746,4.746,0,0,1-1.664,3.665,6.068,6.068,0,0,1-8.031,0,4.746,4.746,0,0,1-1.664-3.665,4.746,4.746,0,0,1,1.664-3.665Zm0,0" transform="translate(-81.734 0)" fill="#8898aa"/>
  <path id="Path_6556" data-name="Path 6556" d="M25.937,255.449a15.521,15.521,0,0,0-.253-1.8,13.149,13.149,0,0,0-.484-1.807,8.552,8.552,0,0,0-.814-1.685,6.459,6.459,0,0,0-1.227-1.46,5.506,5.506,0,0,0-1.763-1.011,6.612,6.612,0,0,0-2.251-.372,2.41,2.41,0,0,0-1.22.472c-.366.218-.793.469-1.271.748a7.646,7.646,0,0,1-1.644.661,6.966,6.966,0,0,1-4.022,0,7.622,7.622,0,0,1-1.643-.661c-.473-.276-.9-.528-1.272-.748a2.408,2.408,0,0,0-1.219-.472,6.6,6.6,0,0,0-2.25.372A5.5,5.5,0,0,0,2.839,248.7a6.46,6.46,0,0,0-1.227,1.46A8.567,8.567,0,0,0,.8,251.845a13.179,13.179,0,0,0-.484,1.807,15.414,15.414,0,0,0-.253,1.8c-.041.543-.062,1.108-.062,1.68A4.516,4.516,0,0,0,1.537,260.7a5.848,5.848,0,0,0,3.96,1.318H20.5a5.849,5.849,0,0,0,3.96-1.318A4.514,4.514,0,0,0,26,257.129c0-.573-.021-1.138-.063-1.68ZM23.2,259.495a3.945,3.945,0,0,1-2.7.859H5.5a3.945,3.945,0,0,1-2.7-.859,2.942,2.942,0,0,1-.97-2.366c0-.533.019-1.059.058-1.564a13.905,13.905,0,0,1,.228-1.619,11.621,11.621,0,0,1,.426-1.593,6.974,6.974,0,0,1,.662-1.37,4.786,4.786,0,0,1,.9-1.079,3.656,3.656,0,0,1,1.173-.666,4.557,4.557,0,0,1,1.438-.253c.064.031.178.09.362.2.375.223.808.478,1.287.757a9.493,9.493,0,0,0,2.064.842,8.957,8.957,0,0,0,5.146,0,9.5,9.5,0,0,0,2.065-.842c.49-.286.91-.533,1.286-.756.185-.11.3-.169.362-.2a4.56,4.56,0,0,1,1.439.253,3.661,3.661,0,0,1,1.173.666,4.773,4.773,0,0,1,.9,1.079,6.952,6.952,0,0,1,.663,1.37,11.6,11.6,0,0,1,.426,1.593,14.022,14.022,0,0,1,.228,1.619h0c.039.5.058,1.029.058,1.564a2.942,2.942,0,0,1-.97,2.366Zm0,0" transform="translate(0 -233.577)" fill="#8898aa"/>
</svg>
