<svg xmlns="http://www.w3.org/2000/svg" width="25.708" height="27.959" viewBox="0 0 25.708 27.959">
  <g id="edit_your_cv" data-name="edit your cv" transform="translate(-7.73 -37.806)">
    <path id="Path_6630" data-name="Path 6630" d="M55.531,8.1H49.473a.4.4,0,0,1-.426-.376V2.376a.379.379,0,0,1,.263-.347.468.468,0,0,1,.464.081l6.058,5.345a.344.344,0,0,1,.092.409A.43.43,0,0,1,55.531,8.1ZM49.9,7.345h4.6L49.9,3.283Z" transform="translate(-23.16 36.316)" fill="#919eaf" stroke="#919eaf" stroke-width="1"/>
    <g id="Component_9_1" data-name="Component 9 – 1" transform="translate(15.854 43.445)">
      <path id="Path_6632" data-name="Path 6632" d="M31.081,15.991a2.684,2.684,0,0,1-2.57-2.722,2.575,2.575,0,1,1,5.14,0A2.684,2.684,0,0,1,31.081,15.991Zm0-4.774a1.858,1.858,0,0,0-1.86,2.053,1.868,1.868,0,1,0,3.719,0,1.858,1.858,0,0,0-1.86-2.053Z" transform="translate(-26.512 -10.538)" fill="#919eaf" stroke="#919eaf" stroke-width="1"/>
      <path id="Path_6633" data-name="Path 6633" d="M31.667,31.466h-8.43a.348.348,0,0,1-.355-.339v-.793a2.992,2.992,0,0,1,3.044-2.855H26.2a.367.367,0,0,1,.2.061,1.906,1.906,0,0,0,2.1,0,.367.367,0,0,1,.2-.061h.268a3,3,0,0,1,3.048,2.848v.8A.348.348,0,0,1,31.667,31.466Zm-8.075-.679h7.72v-.45a2.271,2.271,0,0,0-2.338-2.18h-.161a2.652,2.652,0,0,1-2.723,0h-.165a2.291,2.291,0,0,0-2.333,2.182Z" transform="translate(-22.881 -20.961)" fill="#919eaf" stroke="#919eaf" stroke-width="1"/>
    </g>
    <path id="Path_6635" data-name="Path 6635" d="M31.591,53.2H16.629a.393.393,0,0,1,0-.785H31.591a.393.393,0,0,1,0,.785Z" transform="translate(-3.546 4.311)" fill="#919eaf" stroke="#919eaf" stroke-width="1"/>
    <path id="Path_6636" data-name="Path 6636" d="M31.591,62.2H16.629a.352.352,0,1,1,0-.7H31.591a.352.352,0,1,1,0,.7Z" transform="translate(-3.546 -1.334)" fill="#919eaf" stroke="#919eaf" stroke-width="1"/>
    <g id="Path_6637" data-name="Path 6637" transform="translate(7.73 37.858)" fill="none">
      <path d="M3.673,0,18.506.04a43.094,43.094,0,0,1,7,6.139l.2,18.346a3.537,3.537,0,0,1-3.673,3.383H3.673A3.537,3.537,0,0,1,0,24.525V3.383A3.537,3.537,0,0,1,3.673,0Z" stroke="none"/>
      <path d="M 3.671455383300781 1.899997711181641 C 2.694576263427734 1.900484085083008 1.900001525878906 2.565446853637695 1.900001525878906 3.382726669311523 L 1.900001525878906 24.5247974395752 C 1.900001525878906 25.34238624572754 2.695150375366211 26.00753593444824 3.672521591186523 26.00753593444824 L 22.03512001037598 26.00753593444824 C 23.00932884216309 26.00753593444824 23.80249404907227 25.34664535522461 23.80761528015137 24.53268814086914 L 23.61299324035645 6.941364288330078 C 21.21745300292969 4.437978744506836 19.06510162353516 2.767602920532227 17.90559387207031 1.93803596496582 L 3.671455383300781 1.899997711181641 M 3.672521591186523 -3.814697265625e-06 L 18.50606155395508 0.03963661193847656 C 20.32797050476074 1.281736373901367 22.91559028625488 3.384256362915039 25.50467109680176 6.178895950317383 L 25.7076416015625 24.5247974395752 C 25.7076416015625 26.39303588867188 24.06340026855469 27.90753746032715 22.03512001037598 27.90753746032715 L 3.672521591186523 27.90753746032715 C 1.644241333007813 27.90753746032715 0 26.39303588867188 0 24.5247974395752 L 0 3.382726669311523 C 0 1.514497756958008 1.644241333007813 -3.814697265625e-06 3.672521591186523 -3.814697265625e-06 Z" stroke="none" fill="#919eaf"/>
    </g>
  </g>
</svg>
