<svg xmlns="http://www.w3.org/2000/svg" width="29.713" height="29.19" viewBox="0 0 29.713 29.19">
  <g id="pen" transform="translate(0 0.95)">
    <path id="Path_6561" data-name="Path 6561" d="M24.847,92.719c-.387,0-.885.338-.886.722l0,13.02c0,1.153-.615,1.661-1.776,1.665H3.913a2.312,2.312,0,0,1-2.073-2.347l.077-17.522a2.174,2.174,0,0,1,2.146-2.129H16.62a.935.935,0,0,0,.775-.873.881.881,0,0,0-.775-.821H3.508A3.5,3.5,0,0,0,0,87.917v18.544a3.5,3.5,0,0,0,3.508,3.483H22.183a3.5,3.5,0,0,0,3.508-3.483V93.441a.86.86,0,0,0-.844-.722Z" transform="translate(0 -81.704)" fill="#919eaf"/>
    <g id="Group_587" data-name="Group 587" transform="translate(20.723)">
      <path id="Path_6591" data-name="Path 6591" d="M15.743,18.979v8.04" transform="translate(-11.723 -18.979)" fill="none" stroke="#b8c5d3" stroke-linecap="round" stroke-width="1.9"/>
      <path id="Path_6592" data-name="Path 6592" d="M0,0V8.04" transform="translate(8.04 4.02) rotate(90)" fill="none" stroke="#b8c5d3" stroke-linecap="round" stroke-width="1.9"/>
    </g>
  </g>
</svg>
