<svg id="Component_203_1" data-name="Component 203 – 1" xmlns="http://www.w3.org/2000/svg" width="25.721" height="22.327" viewBox="0 0 25.721 22.327">
  <path id="Path_6559" data-name="Path 6559" d="M25.451,16.313A2.567,2.567,0,0,0,24.2,15.2L3.869,6.437A2.851,2.851,0,0,0,.27,7.551,2.162,2.162,0,0,0,.193,9.489l3.535,7.87L.193,25.23a2.328,2.328,0,0,0,1.513,3.124,2.979,2.979,0,0,0,2.163-.07L24.2,19.519A2.29,2.29,0,0,0,25.451,16.313ZM3.087,26.842a.95.95,0,0,1-1.2-.371.721.721,0,0,1-.025-.646L5.3,18.159H23.233ZM5.3,16.559,1.862,8.895a.723.723,0,0,1,.222-.88.952.952,0,0,1,1-.135l20.146,8.68H5.3Z" transform="translate(0 -6.197)" fill="#919eaf"/>
</svg>
