<svg xmlns="http://www.w3.org/2000/svg" width="27" height="31.648" viewBox="0 0 27 31.648">
  <g id="edit_Borad" data-name="edit Borad" transform="translate(-96)">
    <path id="Path_6639" data-name="Path 6639" d="M115.5,12.692a6.651,6.651,0,0,0,3.7-5.583C119.2,3.189,114.85,0,109.5,0s-9.7,3.189-9.7,7.108a6.651,6.651,0,0,0,3.7,5.583c-4.335.96-7.5,3.913-7.5,7.4V31.648h27V20.089C123,16.6,119.834,13.651,115.5,12.692ZM111.57,25.668l-2.07,1.517-2.07-1.517.715-7.124h2.711Zm-4.18-8.978V14.217h4.219v2.473Zm-5.062-9.581c0-2.9,3.217-5.254,7.172-5.254s7.172,2.357,7.172,5.254-3.217,5.254-7.172,5.254S102.328,10.006,102.328,7.108Zm-3.8,12.981c0-2.814,2.716-5.172,6.328-5.741v4.2h.747l-.786,7.835,4.662,3.415H98.531Zm21.937,9.7H109.518l4.662-3.415-.786-7.835h.747v-4.2c3.612.569,6.328,2.927,6.328,5.741Z" transform="translate(0)" fill="#919eaf"/>
  </g>
</svg>
