<svg xmlns="http://www.w3.org/2000/svg" width="30.995" height="27.684" viewBox="0 0 30.995 27.684">
  <path id="Myconnection" d="M25.007,12.224A6.627,6.627,0,0,0,28.078,6.65,6.761,6.761,0,0,0,15.5,3.321,6.761,6.761,0,0,0,2.919,6.65a6.627,6.627,0,0,0,3.072,5.574A9.542,9.542,0,0,0,0,21.035v3.356a3.32,3.32,0,0,0,3.34,3.293H27.657A3.32,3.32,0,0,0,31,24.391V21.035a9.542,9.542,0,0,0-5.989-8.811ZM21.335,1.791A4.9,4.9,0,0,1,26.262,6.65a4.928,4.928,0,0,1-9.855,0,4.9,4.9,0,0,1,4.928-4.859ZM15.5,13.445a9.7,9.7,0,0,0-2.16-1.221A6.743,6.743,0,0,0,15.5,9.979a6.745,6.745,0,0,0,2.162,2.244A9.682,9.682,0,0,0,15.5,13.445ZM4.735,6.65a4.928,4.928,0,0,1,9.855,0,4.928,4.928,0,0,1-9.855,0ZM15.012,25.893H3.341a1.515,1.515,0,0,1-1.524-1.5V21.035a7.847,7.847,0,0,1,15.691,0v3.357a1.515,1.515,0,0,1-1.524,1.5Zm14.168-1.5a1.515,1.515,0,0,1-1.524,1.5h-8.7a3.233,3.233,0,0,0,.369-1.5V21.035a9.414,9.414,0,0,0-2.468-6.352A7.91,7.91,0,0,1,21.335,13.3a7.8,7.8,0,0,1,7.845,7.736Zm0,0" transform="translate(-0.001 0)" fill="#919eaf"/>
</svg>
