<svg xmlns="http://www.w3.org/2000/svg" width="33.848" height="34.991" viewBox="0 0 33.848 34.991">
  <g id="Police" transform="translate(-30.643 0.5)">
    <path id="Path_6640" data-name="Path 6640" d="M31.69,5.493a.524.524,0,0,0,.547-.5V3.15A2.273,2.273,0,0,1,34.608.995H47.1a1.807,1.807,0,0,1,.36.037v6.4a2.418,2.418,0,0,0,2.52,2.295H57a1.374,1.374,0,0,1,.04.326v2.716a.55.55,0,0,0,1.095,0V10.051a2.363,2.363,0,0,0-.8-1.757L49.032.73A2.861,2.861,0,0,0,47.1,0H34.608a3.323,3.323,0,0,0-3.465,3.15V5a.524.524,0,0,0,.547.5ZM56.266,8.731h-6.29a1.368,1.368,0,0,1-1.425-1.3V1.7Z" fill="#919eaf" stroke="#919eaf" stroke-width="1"/>
    <path id="Path_6641" data-name="Path 6641" d="M37.834,125.729H34.608a2.273,2.273,0,0,1-2.37-2.156V103.332a.55.55,0,0,0-1.095,0v20.241a3.323,3.323,0,0,0,3.465,3.15h3.226a.5.5,0,1,0,0-.995Z" transform="translate(0 -96.016)" fill="#919eaf" stroke="#919eaf" stroke-width="1"/>
    <path id="Path_6642" data-name="Path 6642" d="M89.056,143.527h9.023a.5.5,0,1,0,0-.995H89.056a.5.5,0,1,0,0,.995Z" transform="translate(-53.179 -133.081)" fill="#919eaf" stroke="#919eaf" stroke-width="1"/>
    <path id="Path_6643" data-name="Path 6643" d="M89.056,322.573a.5.5,0,1,0,0,.995h9.023a.5.5,0,1,0,0-.995Z" transform="translate(-53.179 -301.184)" fill="#919eaf" stroke="#919eaf" stroke-width="1"/>
    <path id="Path_6644" data-name="Path 6644" d="M103.945,203.043a.524.524,0,0,0-.547-.5H87.058a.5.5,0,1,0,0,.995H103.4A.524.524,0,0,0,103.945,203.043Z" transform="translate(-51.326 -189.115)" fill="#919eaf" stroke="#919eaf" stroke-width="1"/>
    <path id="Path_6645" data-name="Path 6645" d="M100.3,263.057a.524.524,0,0,0-.547-.5H87.058a.5.5,0,1,0,0,.995H99.75A.524.524,0,0,0,100.3,263.057Z" transform="translate(-51.327 -245.15)" fill="#919eaf" stroke="#919eaf" stroke-width="1"/>
    <path id="Path_6646" data-name="Path 6646" d="M174.457,236.644a2.342,2.342,0,0,0-1.162-1.74l-4.724-3.387,1.07-.97a2.037,2.037,0,0,0,2.125-.436,1.545,1.545,0,0,0,.2-2.3l-3.357-3.061v-4.2a.55.55,0,0,0-1.095,0v3.206l-1.088-.992a1.935,1.935,0,0,0-2.531.178,1.634,1.634,0,0,0-.466,1.956l-4.908,4.449a2.061,2.061,0,0,0-2.142.429,1.54,1.54,0,0,0-.2,2.3l3.419,3.1h-8.737a.5.5,0,1,0,0,.995H160.7l1.041.944a1.944,1.944,0,0,0,2.533-.179,1.62,1.62,0,0,0,.474-1.941l1.039-.942,3.728,4.3c1.339,1.476,2.7,1.327,4.04.232A2.408,2.408,0,0,0,174.457,236.644Zm-9.79-13.007a.8.8,0,0,1,.978-.178l5.54,5.052c.209.191.119.608-.192.894-.291.251-.722.428-1.026.142l-2.052-1.871a.587.587,0,0,0-.774,0,.466.466,0,0,0,0,.7l1.667,1.52c-1.438,1.3-3.343,3.03-4.781,4.334l-4.676-4.241,4.794-4.345,1.192,1.087a.588.588,0,0,0,.774,0,.466.466,0,0,0,0-.7l-1.579-1.439C164.244,224.385,164.327,223.957,164.667,223.637Zm-1.173,12.587c-.315.285-.775.368-.986.178l-5.556-5.038c-.248-.29-.065-.633.2-.891.346-.3.816-.383,1.038-.131l5.5,4.991C163.939,235.623,163.755,235.966,163.494,236.224Zm9.281,1.648a1.5,1.5,0,0,1-2.4-.14l-3.812-4.4,1.228-1.113,4.831,3.464A1.233,1.233,0,0,1,172.775,237.872Z" transform="translate(-110.472 -205.455)" fill="#919eaf" stroke="#919eaf" stroke-width="1"/>
  </g>
</svg>
