<svg id="share_1_" data-name="share (1)" xmlns="http://www.w3.org/2000/svg" width="27" height="30.004" viewBox="0 0 27 30.004">
  <path id="Path_6557" data-name="Path 6557" d="M23.91,110.343H3.1A3.282,3.282,0,0,1,0,106.9V88.778A3.282,3.282,0,0,1,3.1,85.34H7.035a.943.943,0,0,1,0,1.875H3.1a1.492,1.492,0,0,0-1.406,1.563V106.9A1.493,1.493,0,0,0,3.1,108.467H23.91a1.493,1.493,0,0,0,1.406-1.563V96.278a.848.848,0,1,1,1.688,0V106.9a3.282,3.282,0,0,1-3.094,3.438Zm0,0" transform="translate(-0.004 -80.339)" fill="#919eaf"/>
  <path id="Path_6558" data-name="Path 6558" d="M128.846,19.987a.673.673,0,0,1-.186-.025.907.907,0,0,1-.657-.9V17.19C128,10.469,132.924,5,138.972,5h.281V.938a.944.944,0,0,1,.529-.87.784.784,0,0,1,.922.22l7.313,8.438a1.013,1.013,0,0,1,0,1.3L140.7,18.465a.786.786,0,0,1-.922.22.944.944,0,0,1-.529-.87V13.752h-1.337a9.183,9.183,0,0,0-8.3,5.7A.865.865,0,0,1,128.846,19.987Zm10.126-13.11c-4.725,0-8.638,3.944-9.21,9.026a10.457,10.457,0,0,1,8.155-4.025h2.18a.9.9,0,0,1,.844.938V15.49l5.3-6.113-5.3-6.113V5.939a.9.9,0,0,1-.844.938Zm0,0" transform="translate(-121.253 0)" fill="#919eaf"/>
</svg>
