<svg xmlns="http://www.w3.org/2000/svg" width="510.702" height="343.14" viewBox="0 0 510.702 343.14">
  <path id="Path_6629" data-name="Path 6629" d="M505.083,87.534c54.88-3.92,97.583-.906,140.395,0,42.762.9,85.3.063,85.3,57.549,0,71.643-154.059,76.285-216.784,131.531-13.2,11.626-40.153,77.317-86.109,105.089-75.956,45.9-166.665,61.7-196.5,31.577-14.179-14.317-10.985-57-11.042-85.972-.13-65.977,0-153,0-192.451,0-52.8,34.2-39.779,85.183-38.648C364.767,97.525,445.676,91.778,505.083,87.534Z" transform="translate(-220.08 -85.573)" fill="#09b1a2"/>
</svg>
