<svg xmlns="http://www.w3.org/2000/svg" xmlns:xlink="http://www.w3.org/1999/xlink" width="623" height="364" viewBox="0 0 623 364">
  <defs>
    <clipPath id="clip-path">
      <rect width="623" height="364" fill="none"/>
    </clipPath>
  </defs>
  <g id="Repeat_Grid_1" data-name="Repeat Grid 1" clip-path="url(#clip-path)">
    <g transform="translate(-1492 -372)">
      <circle id="Ellipse_211" data-name="Ellipse 211" cx="12.5" cy="12.5" r="12.5" transform="translate(1492 372)" fill="#227f77"/>
    </g>
    <g transform="translate(-1442 -372)">
      <circle id="Ellipse_211-2" data-name="Ellipse 211" cx="12.5" cy="12.5" r="12.5" transform="translate(1492 372)" fill="#227f77"/>
    </g>
    <g transform="translate(-1392 -372)">
      <circle id="Ellipse_211-3" data-name="Ellipse 211" cx="12.5" cy="12.5" r="12.5" transform="translate(1492 372)" fill="#227f77"/>
    </g>
    <g transform="translate(-1342 -372)">
      <circle id="Ellipse_211-4" data-name="Ellipse 211" cx="12.5" cy="12.5" r="12.5" transform="translate(1492 372)" fill="#227f77"/>
    </g>
    <g transform="translate(-1292 -372)">
      <circle id="Ellipse_211-5" data-name="Ellipse 211" cx="12.5" cy="12.5" r="12.5" transform="translate(1492 372)" fill="#227f77"/>
    </g>
    <g transform="translate(-1242 -372)">
      <circle id="Ellipse_211-6" data-name="Ellipse 211" cx="12.5" cy="12.5" r="12.5" transform="translate(1492 372)" fill="#227f77"/>
    </g>
    <g transform="translate(-1192 -372)">
      <circle id="Ellipse_211-7" data-name="Ellipse 211" cx="12.5" cy="12.5" r="12.5" transform="translate(1492 372)" fill="#227f77"/>
    </g>
    <g transform="translate(-1142 -372)">
      <circle id="Ellipse_211-8" data-name="Ellipse 211" cx="12.5" cy="12.5" r="12.5" transform="translate(1492 372)" fill="#227f77"/>
    </g>
    <g transform="translate(-1092 -372)">
      <circle id="Ellipse_211-9" data-name="Ellipse 211" cx="12.5" cy="12.5" r="12.5" transform="translate(1492 372)" fill="#227f77"/>
    </g>
    <g transform="translate(-1042 -372)">
      <circle id="Ellipse_211-10" data-name="Ellipse 211" cx="12.5" cy="12.5" r="12.5" transform="translate(1492 372)" fill="#227f77"/>
    </g>
    <g transform="translate(-992 -372)">
      <circle id="Ellipse_211-11" data-name="Ellipse 211" cx="12.5" cy="12.5" r="12.5" transform="translate(1492 372)" fill="#227f77"/>
    </g>
    <g transform="translate(-942 -372)">
      <circle id="Ellipse_211-12" data-name="Ellipse 211" cx="12.5" cy="12.5" r="12.5" transform="translate(1492 372)" fill="#227f77"/>
    </g>
    <g transform="translate(-892 -372)">
      <circle id="Ellipse_211-13" data-name="Ellipse 211" cx="12.5" cy="12.5" r="12.5" transform="translate(1492 372)" fill="#227f77"/>
    </g>
    <g transform="translate(-1492 -322)">
      <circle id="Ellipse_211-14" data-name="Ellipse 211" cx="12.5" cy="12.5" r="12.5" transform="translate(1492 372)" fill="#227f77"/>
    </g>
    <g transform="translate(-1442 -322)">
      <circle id="Ellipse_211-15" data-name="Ellipse 211" cx="12.5" cy="12.5" r="12.5" transform="translate(1492 372)" fill="#227f77"/>
    </g>
    <g transform="translate(-1392 -322)">
      <circle id="Ellipse_211-16" data-name="Ellipse 211" cx="12.5" cy="12.5" r="12.5" transform="translate(1492 372)" fill="#227f77"/>
    </g>
    <g transform="translate(-1342 -322)">
      <circle id="Ellipse_211-17" data-name="Ellipse 211" cx="12.5" cy="12.5" r="12.5" transform="translate(1492 372)" fill="#227f77"/>
    </g>
    <g transform="translate(-1292 -322)">
      <circle id="Ellipse_211-18" data-name="Ellipse 211" cx="12.5" cy="12.5" r="12.5" transform="translate(1492 372)" fill="#227f77"/>
    </g>
    <g transform="translate(-1242 -322)">
      <circle id="Ellipse_211-19" data-name="Ellipse 211" cx="12.5" cy="12.5" r="12.5" transform="translate(1492 372)" fill="#227f77"/>
    </g>
    <g transform="translate(-1192 -322)">
      <circle id="Ellipse_211-20" data-name="Ellipse 211" cx="12.5" cy="12.5" r="12.5" transform="translate(1492 372)" fill="#227f77"/>
    </g>
    <g transform="translate(-1142 -322)">
      <circle id="Ellipse_211-21" data-name="Ellipse 211" cx="12.5" cy="12.5" r="12.5" transform="translate(1492 372)" fill="#227f77"/>
    </g>
    <g transform="translate(-1092 -322)">
      <circle id="Ellipse_211-22" data-name="Ellipse 211" cx="12.5" cy="12.5" r="12.5" transform="translate(1492 372)" fill="#227f77"/>
    </g>
    <g transform="translate(-1042 -322)">
      <circle id="Ellipse_211-23" data-name="Ellipse 211" cx="12.5" cy="12.5" r="12.5" transform="translate(1492 372)" fill="#227f77"/>
    </g>
    <g transform="translate(-992 -322)">
      <circle id="Ellipse_211-24" data-name="Ellipse 211" cx="12.5" cy="12.5" r="12.5" transform="translate(1492 372)" fill="#227f77"/>
    </g>
    <g transform="translate(-942 -322)">
      <circle id="Ellipse_211-25" data-name="Ellipse 211" cx="12.5" cy="12.5" r="12.5" transform="translate(1492 372)" fill="#227f77"/>
    </g>
    <g transform="translate(-892 -322)">
      <circle id="Ellipse_211-26" data-name="Ellipse 211" cx="12.5" cy="12.5" r="12.5" transform="translate(1492 372)" fill="#227f77"/>
    </g>
    <g transform="translate(-1492 -272)">
      <circle id="Ellipse_211-27" data-name="Ellipse 211" cx="12.5" cy="12.5" r="12.5" transform="translate(1492 372)" fill="#227f77"/>
    </g>
    <g transform="translate(-1442 -272)">
      <circle id="Ellipse_211-28" data-name="Ellipse 211" cx="12.5" cy="12.5" r="12.5" transform="translate(1492 372)" fill="#227f77"/>
    </g>
    <g transform="translate(-1392 -272)">
      <circle id="Ellipse_211-29" data-name="Ellipse 211" cx="12.5" cy="12.5" r="12.5" transform="translate(1492 372)" fill="#227f77"/>
    </g>
    <g transform="translate(-1342 -272)">
      <circle id="Ellipse_211-30" data-name="Ellipse 211" cx="12.5" cy="12.5" r="12.5" transform="translate(1492 372)" fill="#227f77"/>
    </g>
    <g transform="translate(-1292 -272)">
      <circle id="Ellipse_211-31" data-name="Ellipse 211" cx="12.5" cy="12.5" r="12.5" transform="translate(1492 372)" fill="#227f77"/>
    </g>
    <g transform="translate(-1242 -272)">
      <circle id="Ellipse_211-32" data-name="Ellipse 211" cx="12.5" cy="12.5" r="12.5" transform="translate(1492 372)" fill="#227f77"/>
    </g>
    <g transform="translate(-1192 -272)">
      <circle id="Ellipse_211-33" data-name="Ellipse 211" cx="12.5" cy="12.5" r="12.5" transform="translate(1492 372)" fill="#227f77"/>
    </g>
    <g transform="translate(-1142 -272)">
      <circle id="Ellipse_211-34" data-name="Ellipse 211" cx="12.5" cy="12.5" r="12.5" transform="translate(1492 372)" fill="#227f77"/>
    </g>
    <g transform="translate(-1092 -272)">
      <circle id="Ellipse_211-35" data-name="Ellipse 211" cx="12.5" cy="12.5" r="12.5" transform="translate(1492 372)" fill="#227f77"/>
    </g>
    <g transform="translate(-1042 -272)">
      <circle id="Ellipse_211-36" data-name="Ellipse 211" cx="12.5" cy="12.5" r="12.5" transform="translate(1492 372)" fill="#227f77"/>
    </g>
    <g transform="translate(-992 -272)">
      <circle id="Ellipse_211-37" data-name="Ellipse 211" cx="12.5" cy="12.5" r="12.5" transform="translate(1492 372)" fill="#227f77"/>
    </g>
    <g transform="translate(-942 -272)">
      <circle id="Ellipse_211-38" data-name="Ellipse 211" cx="12.5" cy="12.5" r="12.5" transform="translate(1492 372)" fill="#227f77"/>
    </g>
    <g transform="translate(-892 -272)">
      <circle id="Ellipse_211-39" data-name="Ellipse 211" cx="12.5" cy="12.5" r="12.5" transform="translate(1492 372)" fill="#227f77"/>
    </g>
    <g transform="translate(-1492 -222)">
      <circle id="Ellipse_211-40" data-name="Ellipse 211" cx="12.5" cy="12.5" r="12.5" transform="translate(1492 372)" fill="#227f77"/>
    </g>
    <g transform="translate(-1442 -222)">
      <circle id="Ellipse_211-41" data-name="Ellipse 211" cx="12.5" cy="12.5" r="12.5" transform="translate(1492 372)" fill="#227f77"/>
    </g>
    <g transform="translate(-1392 -222)">
      <circle id="Ellipse_211-42" data-name="Ellipse 211" cx="12.5" cy="12.5" r="12.5" transform="translate(1492 372)" fill="#227f77"/>
    </g>
    <g transform="translate(-1342 -222)">
      <circle id="Ellipse_211-43" data-name="Ellipse 211" cx="12.5" cy="12.5" r="12.5" transform="translate(1492 372)" fill="#227f77"/>
    </g>
    <g transform="translate(-1292 -222)">
      <circle id="Ellipse_211-44" data-name="Ellipse 211" cx="12.5" cy="12.5" r="12.5" transform="translate(1492 372)" fill="#227f77"/>
    </g>
    <g transform="translate(-1242 -222)">
      <circle id="Ellipse_211-45" data-name="Ellipse 211" cx="12.5" cy="12.5" r="12.5" transform="translate(1492 372)" fill="#227f77"/>
    </g>
    <g transform="translate(-1192 -222)">
      <circle id="Ellipse_211-46" data-name="Ellipse 211" cx="12.5" cy="12.5" r="12.5" transform="translate(1492 372)" fill="#227f77"/>
    </g>
    <g transform="translate(-1142 -222)">
      <circle id="Ellipse_211-47" data-name="Ellipse 211" cx="12.5" cy="12.5" r="12.5" transform="translate(1492 372)" fill="#227f77"/>
    </g>
    <g transform="translate(-1092 -222)">
      <circle id="Ellipse_211-48" data-name="Ellipse 211" cx="12.5" cy="12.5" r="12.5" transform="translate(1492 372)" fill="#227f77"/>
    </g>
    <g transform="translate(-1042 -222)">
      <circle id="Ellipse_211-49" data-name="Ellipse 211" cx="12.5" cy="12.5" r="12.5" transform="translate(1492 372)" fill="#227f77"/>
    </g>
    <g transform="translate(-992 -222)">
      <circle id="Ellipse_211-50" data-name="Ellipse 211" cx="12.5" cy="12.5" r="12.5" transform="translate(1492 372)" fill="#227f77"/>
    </g>
    <g transform="translate(-942 -222)">
      <circle id="Ellipse_211-51" data-name="Ellipse 211" cx="12.5" cy="12.5" r="12.5" transform="translate(1492 372)" fill="#227f77"/>
    </g>
    <g transform="translate(-892 -222)">
      <circle id="Ellipse_211-52" data-name="Ellipse 211" cx="12.5" cy="12.5" r="12.5" transform="translate(1492 372)" fill="#227f77"/>
    </g>
    <g transform="translate(-1492 -172)">
      <circle id="Ellipse_211-53" data-name="Ellipse 211" cx="12.5" cy="12.5" r="12.5" transform="translate(1492 372)" fill="#227f77"/>
    </g>
    <g transform="translate(-1442 -172)">
      <circle id="Ellipse_211-54" data-name="Ellipse 211" cx="12.5" cy="12.5" r="12.5" transform="translate(1492 372)" fill="#227f77"/>
    </g>
    <g transform="translate(-1392 -172)">
      <circle id="Ellipse_211-55" data-name="Ellipse 211" cx="12.5" cy="12.5" r="12.5" transform="translate(1492 372)" fill="#227f77"/>
    </g>
    <g transform="translate(-1342 -172)">
      <circle id="Ellipse_211-56" data-name="Ellipse 211" cx="12.5" cy="12.5" r="12.5" transform="translate(1492 372)" fill="#227f77"/>
    </g>
    <g transform="translate(-1292 -172)">
      <circle id="Ellipse_211-57" data-name="Ellipse 211" cx="12.5" cy="12.5" r="12.5" transform="translate(1492 372)" fill="#227f77"/>
    </g>
    <g transform="translate(-1242 -172)">
      <circle id="Ellipse_211-58" data-name="Ellipse 211" cx="12.5" cy="12.5" r="12.5" transform="translate(1492 372)" fill="#227f77"/>
    </g>
    <g transform="translate(-1192 -172)">
      <circle id="Ellipse_211-59" data-name="Ellipse 211" cx="12.5" cy="12.5" r="12.5" transform="translate(1492 372)" fill="#227f77"/>
    </g>
    <g transform="translate(-1142 -172)">
      <circle id="Ellipse_211-60" data-name="Ellipse 211" cx="12.5" cy="12.5" r="12.5" transform="translate(1492 372)" fill="#227f77"/>
    </g>
    <g transform="translate(-1092 -172)">
      <circle id="Ellipse_211-61" data-name="Ellipse 211" cx="12.5" cy="12.5" r="12.5" transform="translate(1492 372)" fill="#227f77"/>
    </g>
    <g transform="translate(-1042 -172)">
      <circle id="Ellipse_211-62" data-name="Ellipse 211" cx="12.5" cy="12.5" r="12.5" transform="translate(1492 372)" fill="#227f77"/>
    </g>
    <g transform="translate(-992 -172)">
      <circle id="Ellipse_211-63" data-name="Ellipse 211" cx="12.5" cy="12.5" r="12.5" transform="translate(1492 372)" fill="#227f77"/>
    </g>
    <g transform="translate(-942 -172)">
      <circle id="Ellipse_211-64" data-name="Ellipse 211" cx="12.5" cy="12.5" r="12.5" transform="translate(1492 372)" fill="#227f77"/>
    </g>
    <g transform="translate(-892 -172)">
      <circle id="Ellipse_211-65" data-name="Ellipse 211" cx="12.5" cy="12.5" r="12.5" transform="translate(1492 372)" fill="#227f77"/>
    </g>
    <g transform="translate(-1492 -122)">
      <circle id="Ellipse_211-66" data-name="Ellipse 211" cx="12.5" cy="12.5" r="12.5" transform="translate(1492 372)" fill="#227f77"/>
    </g>
    <g transform="translate(-1442 -122)">
      <circle id="Ellipse_211-67" data-name="Ellipse 211" cx="12.5" cy="12.5" r="12.5" transform="translate(1492 372)" fill="#227f77"/>
    </g>
    <g transform="translate(-1392 -122)">
      <circle id="Ellipse_211-68" data-name="Ellipse 211" cx="12.5" cy="12.5" r="12.5" transform="translate(1492 372)" fill="#227f77"/>
    </g>
    <g transform="translate(-1342 -122)">
      <circle id="Ellipse_211-69" data-name="Ellipse 211" cx="12.5" cy="12.5" r="12.5" transform="translate(1492 372)" fill="#227f77"/>
    </g>
    <g transform="translate(-1292 -122)">
      <circle id="Ellipse_211-70" data-name="Ellipse 211" cx="12.5" cy="12.5" r="12.5" transform="translate(1492 372)" fill="#227f77"/>
    </g>
    <g transform="translate(-1242 -122)">
      <circle id="Ellipse_211-71" data-name="Ellipse 211" cx="12.5" cy="12.5" r="12.5" transform="translate(1492 372)" fill="#227f77"/>
    </g>
    <g transform="translate(-1192 -122)">
      <circle id="Ellipse_211-72" data-name="Ellipse 211" cx="12.5" cy="12.5" r="12.5" transform="translate(1492 372)" fill="#227f77"/>
    </g>
    <g transform="translate(-1142 -122)">
      <circle id="Ellipse_211-73" data-name="Ellipse 211" cx="12.5" cy="12.5" r="12.5" transform="translate(1492 372)" fill="#227f77"/>
    </g>
    <g transform="translate(-1092 -122)">
      <circle id="Ellipse_211-74" data-name="Ellipse 211" cx="12.5" cy="12.5" r="12.5" transform="translate(1492 372)" fill="#227f77"/>
    </g>
    <g transform="translate(-1042 -122)">
      <circle id="Ellipse_211-75" data-name="Ellipse 211" cx="12.5" cy="12.5" r="12.5" transform="translate(1492 372)" fill="#227f77"/>
    </g>
    <g transform="translate(-992 -122)">
      <circle id="Ellipse_211-76" data-name="Ellipse 211" cx="12.5" cy="12.5" r="12.5" transform="translate(1492 372)" fill="#227f77"/>
    </g>
    <g transform="translate(-942 -122)">
      <circle id="Ellipse_211-77" data-name="Ellipse 211" cx="12.5" cy="12.5" r="12.5" transform="translate(1492 372)" fill="#227f77"/>
    </g>
    <g transform="translate(-892 -122)">
      <circle id="Ellipse_211-78" data-name="Ellipse 211" cx="12.5" cy="12.5" r="12.5" transform="translate(1492 372)" fill="#227f77"/>
    </g>
    <g transform="translate(-1492 -72)">
      <circle id="Ellipse_211-79" data-name="Ellipse 211" cx="12.5" cy="12.5" r="12.5" transform="translate(1492 372)" fill="#227f77"/>
    </g>
    <g transform="translate(-1442 -72)">
      <circle id="Ellipse_211-80" data-name="Ellipse 211" cx="12.5" cy="12.5" r="12.5" transform="translate(1492 372)" fill="#227f77"/>
    </g>
    <g transform="translate(-1392 -72)">
      <circle id="Ellipse_211-81" data-name="Ellipse 211" cx="12.5" cy="12.5" r="12.5" transform="translate(1492 372)" fill="#227f77"/>
    </g>
    <g transform="translate(-1342 -72)">
      <circle id="Ellipse_211-82" data-name="Ellipse 211" cx="12.5" cy="12.5" r="12.5" transform="translate(1492 372)" fill="#227f77"/>
    </g>
    <g transform="translate(-1292 -72)">
      <circle id="Ellipse_211-83" data-name="Ellipse 211" cx="12.5" cy="12.5" r="12.5" transform="translate(1492 372)" fill="#227f77"/>
    </g>
    <g transform="translate(-1242 -72)">
      <circle id="Ellipse_211-84" data-name="Ellipse 211" cx="12.5" cy="12.5" r="12.5" transform="translate(1492 372)" fill="#227f77"/>
    </g>
    <g transform="translate(-1192 -72)">
      <circle id="Ellipse_211-85" data-name="Ellipse 211" cx="12.5" cy="12.5" r="12.5" transform="translate(1492 372)" fill="#227f77"/>
    </g>
    <g transform="translate(-1142 -72)">
      <circle id="Ellipse_211-86" data-name="Ellipse 211" cx="12.5" cy="12.5" r="12.5" transform="translate(1492 372)" fill="#227f77"/>
    </g>
    <g transform="translate(-1092 -72)">
      <circle id="Ellipse_211-87" data-name="Ellipse 211" cx="12.5" cy="12.5" r="12.5" transform="translate(1492 372)" fill="#227f77"/>
    </g>
    <g transform="translate(-1042 -72)">
      <circle id="Ellipse_211-88" data-name="Ellipse 211" cx="12.5" cy="12.5" r="12.5" transform="translate(1492 372)" fill="#227f77"/>
    </g>
    <g transform="translate(-992 -72)">
      <circle id="Ellipse_211-89" data-name="Ellipse 211" cx="12.5" cy="12.5" r="12.5" transform="translate(1492 372)" fill="#227f77"/>
    </g>
    <g transform="translate(-942 -72)">
      <circle id="Ellipse_211-90" data-name="Ellipse 211" cx="12.5" cy="12.5" r="12.5" transform="translate(1492 372)" fill="#227f77"/>
    </g>
    <g transform="translate(-892 -72)">
      <circle id="Ellipse_211-91" data-name="Ellipse 211" cx="12.5" cy="12.5" r="12.5" transform="translate(1492 372)" fill="#227f77"/>
    </g>
    <g transform="translate(-1492 -22)">
      <circle id="Ellipse_211-92" data-name="Ellipse 211" cx="12.5" cy="12.5" r="12.5" transform="translate(1492 372)" fill="#227f77"/>
    </g>
    <g transform="translate(-1442 -22)">
      <circle id="Ellipse_211-93" data-name="Ellipse 211" cx="12.5" cy="12.5" r="12.5" transform="translate(1492 372)" fill="#227f77"/>
    </g>
    <g transform="translate(-1392 -22)">
      <circle id="Ellipse_211-94" data-name="Ellipse 211" cx="12.5" cy="12.5" r="12.5" transform="translate(1492 372)" fill="#227f77"/>
    </g>
    <g transform="translate(-1342 -22)">
      <circle id="Ellipse_211-95" data-name="Ellipse 211" cx="12.5" cy="12.5" r="12.5" transform="translate(1492 372)" fill="#227f77"/>
    </g>
    <g transform="translate(-1292 -22)">
      <circle id="Ellipse_211-96" data-name="Ellipse 211" cx="12.5" cy="12.5" r="12.5" transform="translate(1492 372)" fill="#227f77"/>
    </g>
    <g transform="translate(-1242 -22)">
      <circle id="Ellipse_211-97" data-name="Ellipse 211" cx="12.5" cy="12.5" r="12.5" transform="translate(1492 372)" fill="#227f77"/>
    </g>
    <g transform="translate(-1192 -22)">
      <circle id="Ellipse_211-98" data-name="Ellipse 211" cx="12.5" cy="12.5" r="12.5" transform="translate(1492 372)" fill="#227f77"/>
    </g>
    <g transform="translate(-1142 -22)">
      <circle id="Ellipse_211-99" data-name="Ellipse 211" cx="12.5" cy="12.5" r="12.5" transform="translate(1492 372)" fill="#227f77"/>
    </g>
    <g transform="translate(-1092 -22)">
      <circle id="Ellipse_211-100" data-name="Ellipse 211" cx="12.5" cy="12.5" r="12.5" transform="translate(1492 372)" fill="#227f77"/>
    </g>
    <g transform="translate(-1042 -22)">
      <circle id="Ellipse_211-101" data-name="Ellipse 211" cx="12.5" cy="12.5" r="12.5" transform="translate(1492 372)" fill="#227f77"/>
    </g>
    <g transform="translate(-992 -22)">
      <circle id="Ellipse_211-102" data-name="Ellipse 211" cx="12.5" cy="12.5" r="12.5" transform="translate(1492 372)" fill="#227f77"/>
    </g>
    <g transform="translate(-942 -22)">
      <circle id="Ellipse_211-103" data-name="Ellipse 211" cx="12.5" cy="12.5" r="12.5" transform="translate(1492 372)" fill="#227f77"/>
    </g>
    <g transform="translate(-892 -22)">
      <circle id="Ellipse_211-104" data-name="Ellipse 211" cx="12.5" cy="12.5" r="12.5" transform="translate(1492 372)" fill="#227f77"/>
    </g>
  </g>
</svg>
