<svg id="like" xmlns="http://www.w3.org/2000/svg" width="17" height="17" viewBox="0 0 17 17">
  <g id="Group_621" data-name="Group 621" transform="translate(0 0)">
    <g id="Group_620" data-name="Group 620">
      <path id="Path_6618" data-name="Path 6618" d="M17,20.83a1.679,1.679,0,0,0-.461-1.163,1.886,1.886,0,0,0,.453-1.411,1.859,1.859,0,0,0-1.847-1.676H10.769a11.032,11.032,0,0,0,.564-2.957c0-1.6-1.305-2.957-2.125-2.957a2.171,2.171,0,0,0-1.284.45.376.376,0,0,0-.133.289v2.506L5.751,18.524l-.084.045v-.141a.362.362,0,0,0-.354-.37H1.771A1.812,1.812,0,0,0,0,19.906v5.913a1.812,1.812,0,0,0,1.771,1.848H3.9a1.781,1.781,0,0,0,1.667-1.222,4.462,4.462,0,0,0,1.875.483h6.5a1.644,1.644,0,0,0,1.605-1.291,1.734,1.734,0,0,0-.128-1.111,1.665,1.665,0,0,0,.875-1.479,1.7,1.7,0,0,0-.166-.738A1.665,1.665,0,0,0,17,20.83Zm-1.494.912a.36.36,0,0,0-.3.251.381.381,0,0,0,.094.386.931.931,0,0,1,.28.669.908.908,0,0,1-.785.912.36.36,0,0,0-.3.251.381.381,0,0,0,.094.386.939.939,0,0,1,.256.882.923.923,0,0,1-.913.711h-6.5a3.264,3.264,0,0,1-1.874-.631.347.347,0,0,0-.386-.08.37.37,0,0,0-.219.341A1.088,1.088,0,0,1,3.9,26.928H1.771A1.088,1.088,0,0,1,.708,25.819V19.906A1.088,1.088,0,0,1,1.771,18.8H4.958v.37a.375.375,0,0,0,.169.315.349.349,0,0,0,.344.016l.708-.37a.362.362,0,0,0,.163-.175l2.125-4.8a.39.39,0,0,0,.033-.155V11.606a1.447,1.447,0,0,1,.708-.2,2.434,2.434,0,0,1,1.417,2.217,11.926,11.926,0,0,1-.685,3.195.386.386,0,0,0,.039.341.352.352,0,0,0,.292.16h4.874a1.134,1.134,0,0,1,1.142,1,1.119,1.119,0,0,1-.5,1.046.378.378,0,0,0,.024.644.92.92,0,0,1,.485.817A.908.908,0,0,1,15.506,21.742Z" transform="translate(0 -10.667)" fill="#494747"/>
    </g>
  </g>
  <g id="Group_623" data-name="Group 623" transform="translate(4.958 8.13)">
    <g id="Group_622" data-name="Group 622" transform="translate(0 0)">
      <path id="Path_6619" data-name="Path 6619" d="M149.687,245.333a.362.362,0,0,0-.354.37v6.652a.355.355,0,1,0,.708,0V245.7A.362.362,0,0,0,149.687,245.333Z" transform="translate(-149.333 -245.333)" fill="#494747"/>
    </g>
  </g>
</svg>
