<svg id="message" xmlns="http://www.w3.org/2000/svg" width="15.702" height="13.085" viewBox="0 0 15.702 13.085">
  <path id="Path_6623" data-name="Path 6623" d="M12.482.5H3.22A3.243,3.243,0,0,0,0,3.759V8.792a3.2,3.2,0,0,0,2.278,3.082l1.555,1.574a.456.456,0,0,0,.651,0L5.911,12h6.571A3.243,3.243,0,0,0,15.7,8.746V3.759A3.243,3.243,0,0,0,12.482.5Zm2.3,8.246a2.317,2.317,0,0,1-2.3,2.328H5.72a.457.457,0,0,0-.325.136L4.159,12.461,2.842,11.129a.458.458,0,0,0-.214-.123A2.272,2.272,0,0,1,.92,8.792V3.759a2.317,2.317,0,0,1,2.3-2.328h9.262a2.317,2.317,0,0,1,2.3,2.328Zm0,0" transform="translate(0 -0.5)" fill="#494747"/>
  <path id="Path_6624" data-name="Path 6624" d="M152.06,144.328h-5.842a.466.466,0,0,0,0,.931h5.842a.466.466,0,0,0,0-.931Zm0,0" transform="translate(-141.288 -139.864)" fill="#494747"/>
  <path id="Path_6625" data-name="Path 6625" d="M152.06,197.352h-5.842a.466.466,0,0,0,0,.931h5.842a.466.466,0,0,0,0-.931Zm0,0" transform="translate(-141.288 -191.242)" fill="#494747"/>
</svg>
